<svg width="25" height="25" viewBox="0 0 25 25" fill="none" xmlns="http://www.w3.org/2000/svg">
<path d="M18.3333 6.58371C17.5697 5.81436 16.6607 5.20451 15.6594 4.78963C14.6579 4.37474 13.5839 4.16312 12.5 4.16705C11.0509 4.16846 9.62757 4.55059 8.3726 5.27515C7.11764 5.99971 6.07507 7.04129 5.3493 8.29555C4.62353 9.54982 4.24005 10.9728 4.23724 12.4218C4.23444 13.871 4.61242 15.2954 5.33332 16.5525L4.16666 20.8337L8.54166 19.6879C9.74973 20.36 11.1072 20.7182 12.4896 20.7296C14.6872 20.7297 16.7958 19.8616 18.3564 18.3146C19.9172 16.7676 20.8036 14.6666 20.8229 12.4691C20.8156 11.3726 20.5919 10.2882 20.1647 9.27831C19.7375 8.26836 19.1151 7.35267 18.3333 6.58371ZM12.5 19.3025C11.2684 19.3033 10.0594 18.9723 8.99999 18.3441L8.74999 18.1879L6.15624 18.8754L6.84374 16.3441L6.67707 16.0837C5.79087 14.6532 5.46014 12.9473 5.74751 11.2891C6.03489 9.63107 6.92042 8.13596 8.23634 7.08708C9.55228 6.03818 11.2072 5.50836 12.8876 5.59797C14.568 5.68758 16.1573 6.3904 17.3542 7.5733C18.6625 8.85266 19.4114 10.5978 19.4375 12.4275C19.421 14.2565 18.6828 16.0051 17.3835 17.2927C16.0844 18.5802 14.3292 19.3026 12.5 19.3025ZM16.2604 14.1566C16.0521 14.0525 15.0417 13.5525 14.8542 13.49C14.6667 13.4275 14.5208 13.3858 14.3854 13.5941C14.1817 13.8734 13.9625 14.1411 13.7292 14.3962C13.6146 14.5421 13.4896 14.5525 13.2812 14.3962C12.0934 13.9268 11.1038 13.0623 10.4792 11.9483C10.2604 11.5837 10.6875 11.6046 11.0833 10.8233C11.1126 10.767 11.1278 10.7045 11.1278 10.641C11.1278 10.5776 11.1126 10.5151 11.0833 10.4587C11.0833 10.3545 10.6146 9.33371 10.4479 8.92746C10.2812 8.52121 10.1146 8.58371 9.97916 8.5733H9.57291C9.46765 8.57491 9.36395 8.59898 9.26874 8.64389C9.17353 8.6888 9.08901 8.75351 9.02082 8.83371C8.78709 9.06098 8.60479 9.33571 8.4862 9.63938C8.3676 9.94305 8.31548 10.2686 8.33332 10.5941C8.39864 11.3734 8.6921 12.1161 9.17707 12.7296C10.0648 14.0585 11.2813 15.1351 12.7083 15.8546C13.4568 16.2914 14.3266 16.4741 15.1875 16.3754C15.4742 16.3185 15.7457 16.202 15.9844 16.0332C16.2231 15.8646 16.4236 15.6475 16.5729 15.3962C16.7112 15.0896 16.7548 14.7486 16.6979 14.4171C16.6042 14.3129 16.4687 14.2608 16.2604 14.1566Z" fill="black"/>
</svg>
